<mxfile host="app.diagrams.net" agent="Mozilla/5.0 (Windows NT 10.0; Win64; x64) AppleWebKit/537.36 (KHTML, like Gecko) Chrome/141.0.0.0 Safari/537.36 Edg/141.0.0.0" version="28.2.5">
  <diagram name="PÃ¡gina-1" id="ybxMegu20QLMTT6GTvBc">
    <mxGraphModel dx="1418" dy="786" grid="1" gridSize="10" guides="1" tooltips="1" connect="1" arrows="1" fold="1" page="1" pageScale="1" pageWidth="827" pageHeight="1169" math="0" shadow="0">
      <root>
        <mxCell id="0" />
        <mxCell id="1" parent="0" />
        <mxCell id="Gb_D7QVCogXqmU0bzWKU-40" value="" style="edgeStyle=orthogonalEdgeStyle;rounded=0;orthogonalLoop=1;jettySize=auto;html=1;entryX=0.5;entryY=0;entryDx=0;entryDy=0;" edge="1" parent="1" source="Gb_D7QVCogXqmU0bzWKU-41" target="Gb_D7QVCogXqmU0bzWKU-43">
          <mxGeometry relative="1" as="geometry">
            <mxPoint x="580" y="1040" as="targetPoint" />
          </mxGeometry>
        </mxCell>
        <mxCell id="Gb_D7QVCogXqmU0bzWKU-41" value="inicio&lt;div&gt;&lt;br&gt;&lt;/div&gt;" style="ellipse;whiteSpace=wrap;html=1;" vertex="1" parent="1">
          <mxGeometry x="520" y="880" width="120" height="80" as="geometry" />
        </mxCell>
        <mxCell id="Gb_D7QVCogXqmU0bzWKU-42" value="fim" style="ellipse;whiteSpace=wrap;html=1;" vertex="1" parent="1">
          <mxGeometry x="521.94" y="1780" width="120" height="80" as="geometry" />
        </mxCell>
        <mxCell id="Gb_D7QVCogXqmU0bzWKU-43" value="ler numeros" style="shape=parallelogram;perimeter=parallelogramPerimeter;whiteSpace=wrap;html=1;fixedSize=1;" vertex="1" parent="1">
          <mxGeometry x="520" y="1120" width="120" height="60" as="geometry" />
        </mxCell>
        <mxCell id="Gb_D7QVCogXqmU0bzWKU-44" style="edgeStyle=orthogonalEdgeStyle;rounded=0;orthogonalLoop=1;jettySize=auto;html=1;" edge="1" parent="1" source="Gb_D7QVCogXqmU0bzWKU-48" target="Gb_D7QVCogXqmU0bzWKU-50">
          <mxGeometry relative="1" as="geometry">
            <Array as="points">
              <mxPoint x="869.94" y="1460" />
            </Array>
          </mxGeometry>
        </mxCell>
        <mxCell id="Gb_D7QVCogXqmU0bzWKU-45" value="sim" style="edgeLabel;html=1;align=center;verticalAlign=middle;resizable=0;points=[];" vertex="1" connectable="0" parent="Gb_D7QVCogXqmU0bzWKU-44">
          <mxGeometry x="0.0261" y="2" relative="1" as="geometry">
            <mxPoint as="offset" />
          </mxGeometry>
        </mxCell>
        <mxCell id="Gb_D7QVCogXqmU0bzWKU-46" style="edgeStyle=orthogonalEdgeStyle;rounded=0;orthogonalLoop=1;jettySize=auto;html=1;entryX=0;entryY=0.25;entryDx=0;entryDy=0;" edge="1" parent="1" source="Gb_D7QVCogXqmU0bzWKU-48" target="Gb_D7QVCogXqmU0bzWKU-43">
          <mxGeometry relative="1" as="geometry">
            <Array as="points">
              <mxPoint x="290" y="1460" />
              <mxPoint x="290" y="1140" />
              <mxPoint x="534" y="1140" />
            </Array>
          </mxGeometry>
        </mxCell>
        <mxCell id="Gb_D7QVCogXqmU0bzWKU-47" value="Nao" style="edgeLabel;html=1;align=center;verticalAlign=middle;resizable=0;points=[];" vertex="1" connectable="0" parent="Gb_D7QVCogXqmU0bzWKU-46">
          <mxGeometry x="-0.7041" y="3" relative="1" as="geometry">
            <mxPoint as="offset" />
          </mxGeometry>
        </mxCell>
        <mxCell id="Gb_D7QVCogXqmU0bzWKU-48" value="numeros &amp;gt;= 1000" style="rhombus;whiteSpace=wrap;html=1;" vertex="1" parent="1">
          <mxGeometry x="424.94" y="1430" width="290" height="80" as="geometry" />
        </mxCell>
        <mxCell id="Gb_D7QVCogXqmU0bzWKU-49" style="edgeStyle=orthogonalEdgeStyle;rounded=0;orthogonalLoop=1;jettySize=auto;html=1;entryX=1;entryY=0.5;entryDx=0;entryDy=0;" edge="1" parent="1" source="Gb_D7QVCogXqmU0bzWKU-50" target="Gb_D7QVCogXqmU0bzWKU-52">
          <mxGeometry relative="1" as="geometry" />
        </mxCell>
        <mxCell id="Gb_D7QVCogXqmU0bzWKU-50" value="1000 Valores acomulados" style="shape=parallelogram;perimeter=parallelogramPerimeter;whiteSpace=wrap;html=1;fixedSize=1;" vertex="1" parent="1">
          <mxGeometry x="809.94" y="1540" width="120" height="60" as="geometry" />
        </mxCell>
        <mxCell id="Gb_D7QVCogXqmU0bzWKU-51" value="" style="edgeStyle=orthogonalEdgeStyle;rounded=0;orthogonalLoop=1;jettySize=auto;html=1;" edge="1" parent="1" source="Gb_D7QVCogXqmU0bzWKU-52" target="Gb_D7QVCogXqmU0bzWKU-56">
          <mxGeometry relative="1" as="geometry">
            <mxPoint x="583.94" y="1626" as="targetPoint" />
          </mxGeometry>
        </mxCell>
        <mxCell id="Gb_D7QVCogXqmU0bzWKU-52" value="" style="ellipse;whiteSpace=wrap;html=1;aspect=fixed;" vertex="1" parent="1">
          <mxGeometry x="575.94" y="1562" width="16" height="16" as="geometry" />
        </mxCell>
        <mxCell id="Gb_D7QVCogXqmU0bzWKU-53" value="" style="edgeStyle=orthogonalEdgeStyle;rounded=0;orthogonalLoop=1;jettySize=auto;html=1;" edge="1" parent="1" source="Gb_D7QVCogXqmU0bzWKU-54" target="Gb_D7QVCogXqmU0bzWKU-48">
          <mxGeometry relative="1" as="geometry" />
        </mxCell>
        <mxCell id="Gb_D7QVCogXqmU0bzWKU-54" value="contador = contador + numero" style="rounded=0;whiteSpace=wrap;html=1;" vertex="1" parent="1">
          <mxGeometry x="509.94" y="1270" width="120" height="60" as="geometry" />
        </mxCell>
        <mxCell id="Gb_D7QVCogXqmU0bzWKU-55" value="" style="edgeStyle=orthogonalEdgeStyle;rounded=0;orthogonalLoop=1;jettySize=auto;html=1;" edge="1" parent="1" source="Gb_D7QVCogXqmU0bzWKU-56" target="Gb_D7QVCogXqmU0bzWKU-42">
          <mxGeometry relative="1" as="geometry" />
        </mxCell>
        <mxCell id="Gb_D7QVCogXqmU0bzWKU-56" value="media = (contador+numero)/2" style="rounded=0;whiteSpace=wrap;html=1;" vertex="1" parent="1">
          <mxGeometry x="521.94" y="1660" width="120" height="60" as="geometry" />
        </mxCell>
        <mxCell id="Gb_D7QVCogXqmU0bzWKU-57" value="contador = 0&lt;div&gt;somatorio=0&lt;/div&gt;" style="rounded=0;whiteSpace=wrap;html=1;" vertex="1" parent="1">
          <mxGeometry x="523.94" y="1020" width="120" height="60" as="geometry" />
        </mxCell>
      </root>
    </mxGraphModel>
  </diagram>
</mxfile>
